<mxfile host="app.diagrams.net" modified="2024-05-26T17:02:23.128Z" agent="Mozilla/5.0 (Windows NT 10.0; Win64; x64) AppleWebKit/537.36 (KHTML, like Gecko) Chrome/125.0.0.0 Safari/537.36" etag="DyyqUp6fcd_6e5f2RZVB" version="24.4.8" type="google" pages="2">
  <diagram name="Diagrama Entidad Relación (DER)" id="x8oyzA6o5BlsPKeIwjDn">
    <mxGraphModel grid="1" page="1" gridSize="10" guides="1" tooltips="1" connect="1" arrows="1" fold="1" pageScale="1" pageWidth="827" pageHeight="1169" math="0" shadow="0">
      <root>
        <mxCell id="0" />
        <mxCell id="1" parent="0" />
        <mxCell id="QEHf1LV6a4KE-_OXp7b6-7" value="muestras" style="whiteSpace=wrap;html=1;align=center;" vertex="1" parent="1">
          <mxGeometry x="364" y="29" width="100" height="40" as="geometry" />
        </mxCell>
        <mxCell id="QEHf1LV6a4KE-_OXp7b6-8" value="ubicación" style="ellipse;whiteSpace=wrap;html=1;align=center;" vertex="1" parent="1">
          <mxGeometry x="423" y="120" width="100" height="40" as="geometry" />
        </mxCell>
        <mxCell id="QEHf1LV6a4KE-_OXp7b6-9" value="fecha_img" style="ellipse;whiteSpace=wrap;html=1;align=center;" vertex="1" parent="1">
          <mxGeometry x="303" y="120" width="100" height="40" as="geometry" />
        </mxCell>
        <mxCell id="QEHf1LV6a4KE-_OXp7b6-10" value="nombre_img" style="ellipse;whiteSpace=wrap;html=1;align=center;" vertex="1" parent="1">
          <mxGeometry x="180" y="120" width="100" height="40" as="geometry" />
        </mxCell>
        <mxCell id="QEHf1LV6a4KE-_OXp7b6-11" value="url_img" style="ellipse;whiteSpace=wrap;html=1;align=center;" vertex="1" parent="1">
          <mxGeometry x="60" y="120" width="100" height="40" as="geometry" />
        </mxCell>
        <mxCell id="QEHf1LV6a4KE-_OXp7b6-13" value="destacado" style="ellipse;whiteSpace=wrap;html=1;align=center;" vertex="1" parent="1">
          <mxGeometry x="542" y="120" width="100" height="40" as="geometry" />
        </mxCell>
        <mxCell id="QEHf1LV6a4KE-_OXp7b6-14" value="texto_alt" style="ellipse;whiteSpace=wrap;html=1;align=center;" vertex="1" parent="1">
          <mxGeometry x="660" y="120" width="100" height="40" as="geometry" />
        </mxCell>
        <mxCell id="QEHf1LV6a4KE-_OXp7b6-15" value="" style="endArrow=none;html=1;rounded=0;entryX=0;entryY=0.5;entryDx=0;entryDy=0;exitX=0.5;exitY=0;exitDx=0;exitDy=0;" edge="1" parent="1" source="QEHf1LV6a4KE-_OXp7b6-11" target="QEHf1LV6a4KE-_OXp7b6-7">
          <mxGeometry relative="1" as="geometry">
            <mxPoint x="319" y="219" as="sourcePoint" />
            <mxPoint x="479" y="219" as="targetPoint" />
          </mxGeometry>
        </mxCell>
        <mxCell id="QEHf1LV6a4KE-_OXp7b6-16" value="" style="endArrow=none;html=1;rounded=0;exitX=0.5;exitY=0;exitDx=0;exitDy=0;" edge="1" parent="1" source="QEHf1LV6a4KE-_OXp7b6-10" target="QEHf1LV6a4KE-_OXp7b6-7">
          <mxGeometry relative="1" as="geometry">
            <mxPoint x="79" y="159" as="sourcePoint" />
            <mxPoint x="363" y="69" as="targetPoint" />
          </mxGeometry>
        </mxCell>
        <mxCell id="QEHf1LV6a4KE-_OXp7b6-17" value="" style="endArrow=none;html=1;rounded=0;exitX=0.5;exitY=0;exitDx=0;exitDy=0;" edge="1" parent="1" source="QEHf1LV6a4KE-_OXp7b6-9" target="QEHf1LV6a4KE-_OXp7b6-7">
          <mxGeometry relative="1" as="geometry">
            <mxPoint x="212" y="139" as="sourcePoint" />
            <mxPoint x="386" y="69" as="targetPoint" />
          </mxGeometry>
        </mxCell>
        <mxCell id="QEHf1LV6a4KE-_OXp7b6-19" value="" style="endArrow=none;html=1;rounded=0;entryX=0.75;entryY=1;entryDx=0;entryDy=0;exitX=0.5;exitY=0;exitDx=0;exitDy=0;" edge="1" parent="1" source="QEHf1LV6a4KE-_OXp7b6-8" target="QEHf1LV6a4KE-_OXp7b6-7">
          <mxGeometry width="50" height="50" relative="1" as="geometry">
            <mxPoint x="529" y="139" as="sourcePoint" />
            <mxPoint x="429" y="189" as="targetPoint" />
          </mxGeometry>
        </mxCell>
        <mxCell id="QEHf1LV6a4KE-_OXp7b6-20" value="" style="endArrow=none;html=1;rounded=0;entryX=1;entryY=1;entryDx=0;entryDy=0;exitX=0.5;exitY=0;exitDx=0;exitDy=0;" edge="1" parent="1" source="QEHf1LV6a4KE-_OXp7b6-13" target="QEHf1LV6a4KE-_OXp7b6-7">
          <mxGeometry width="50" height="50" relative="1" as="geometry">
            <mxPoint x="550" y="129" as="sourcePoint" />
            <mxPoint x="469" y="59" as="targetPoint" />
          </mxGeometry>
        </mxCell>
        <mxCell id="QEHf1LV6a4KE-_OXp7b6-21" value="" style="endArrow=none;html=1;rounded=0;exitX=0.5;exitY=0;exitDx=0;exitDy=0;" edge="1" parent="1" source="QEHf1LV6a4KE-_OXp7b6-14">
          <mxGeometry width="50" height="50" relative="1" as="geometry">
            <mxPoint x="645" y="129" as="sourcePoint" />
            <mxPoint x="463" y="49" as="targetPoint" />
          </mxGeometry>
        </mxCell>
        <mxCell id="QEHf1LV6a4KE-_OXp7b6-22" value="plataformas" style="whiteSpace=wrap;html=1;align=center;" vertex="1" parent="1">
          <mxGeometry x="363.5" y="180" width="100" height="40" as="geometry" />
        </mxCell>
        <mxCell id="QEHf1LV6a4KE-_OXp7b6-23" value="nombre_plat" style="ellipse;whiteSpace=wrap;html=1;align=center;" vertex="1" parent="1">
          <mxGeometry x="299.5" y="260" width="100" height="40" as="geometry" />
        </mxCell>
        <mxCell id="QEHf1LV6a4KE-_OXp7b6-27" value="" style="endArrow=none;html=1;rounded=0;entryX=0.25;entryY=1;entryDx=0;entryDy=0;exitX=0.5;exitY=0;exitDx=0;exitDy=0;" edge="1" parent="1" source="QEHf1LV6a4KE-_OXp7b6-23" target="QEHf1LV6a4KE-_OXp7b6-22">
          <mxGeometry width="50" height="50" relative="1" as="geometry">
            <mxPoint x="379.5" y="220" as="sourcePoint" />
            <mxPoint x="429.5" y="170" as="targetPoint" />
          </mxGeometry>
        </mxCell>
        <mxCell id="QEHf1LV6a4KE-_OXp7b6-28" value="fabricante" style="ellipse;whiteSpace=wrap;html=1;align=center;" vertex="1" parent="1">
          <mxGeometry x="429.5" y="260" width="100" height="40" as="geometry" />
        </mxCell>
        <mxCell id="QEHf1LV6a4KE-_OXp7b6-29" value="" style="endArrow=none;html=1;rounded=0;entryX=0.5;entryY=0;entryDx=0;entryDy=0;exitX=0.75;exitY=1;exitDx=0;exitDy=0;" edge="1" parent="1" source="QEHf1LV6a4KE-_OXp7b6-22" target="QEHf1LV6a4KE-_OXp7b6-28">
          <mxGeometry width="50" height="50" relative="1" as="geometry">
            <mxPoint x="419.5" y="260" as="sourcePoint" />
            <mxPoint x="469.5" y="210" as="targetPoint" />
          </mxGeometry>
        </mxCell>
        <mxCell id="QEHf1LV6a4KE-_OXp7b6-30" value="usuarios" style="whiteSpace=wrap;html=1;align=center;" vertex="1" parent="1">
          <mxGeometry x="363" y="320" width="100" height="40" as="geometry" />
        </mxCell>
        <mxCell id="QEHf1LV6a4KE-_OXp7b6-31" value="email" style="ellipse;whiteSpace=wrap;html=1;align=center;" vertex="1" parent="1">
          <mxGeometry x="424" y="400" width="100" height="40" as="geometry" />
        </mxCell>
        <mxCell id="QEHf1LV6a4KE-_OXp7b6-32" value="" style="endArrow=none;html=1;rounded=0;entryX=0.75;entryY=1;entryDx=0;entryDy=0;exitX=0.5;exitY=0;exitDx=0;exitDy=0;" edge="1" parent="1" source="QEHf1LV6a4KE-_OXp7b6-31" target="QEHf1LV6a4KE-_OXp7b6-30">
          <mxGeometry width="50" height="50" relative="1" as="geometry">
            <mxPoint x="379" y="360" as="sourcePoint" />
            <mxPoint x="429" y="310" as="targetPoint" />
          </mxGeometry>
        </mxCell>
        <mxCell id="QEHf1LV6a4KE-_OXp7b6-33" value="contraseña" style="ellipse;whiteSpace=wrap;html=1;align=center;" vertex="1" parent="1">
          <mxGeometry x="543" y="400" width="100" height="40" as="geometry" />
        </mxCell>
        <mxCell id="QEHf1LV6a4KE-_OXp7b6-34" value="" style="endArrow=none;html=1;rounded=0;entryX=0.5;entryY=0;entryDx=0;entryDy=0;exitX=1;exitY=1;exitDx=0;exitDy=0;" edge="1" parent="1" source="QEHf1LV6a4KE-_OXp7b6-30" target="QEHf1LV6a4KE-_OXp7b6-33">
          <mxGeometry width="50" height="50" relative="1" as="geometry">
            <mxPoint x="419" y="400" as="sourcePoint" />
            <mxPoint x="469" y="350" as="targetPoint" />
          </mxGeometry>
        </mxCell>
        <mxCell id="aQtirNLUVnoX9iIVkl9E-4" value="nombre_us" style="ellipse;whiteSpace=wrap;html=1;align=center;" vertex="1" parent="1">
          <mxGeometry x="183" y="400" width="100" height="40" as="geometry" />
        </mxCell>
        <mxCell id="aQtirNLUVnoX9iIVkl9E-5" value="apellido" style="ellipse;whiteSpace=wrap;html=1;align=center;" vertex="1" parent="1">
          <mxGeometry x="304" y="400" width="100" height="40" as="geometry" />
        </mxCell>
        <mxCell id="aQtirNLUVnoX9iIVkl9E-6" value="" style="endArrow=none;html=1;rounded=0;entryX=0.25;entryY=1;entryDx=0;entryDy=0;exitX=0.5;exitY=0;exitDx=0;exitDy=0;" edge="1" parent="1" source="aQtirNLUVnoX9iIVkl9E-5" target="QEHf1LV6a4KE-_OXp7b6-30">
          <mxGeometry width="50" height="50" relative="1" as="geometry">
            <mxPoint x="299" y="330" as="sourcePoint" />
            <mxPoint x="349" y="280" as="targetPoint" />
          </mxGeometry>
        </mxCell>
        <mxCell id="aQtirNLUVnoX9iIVkl9E-7" value="" style="endArrow=none;html=1;rounded=0;entryX=0;entryY=1;entryDx=0;entryDy=0;exitX=0.5;exitY=0;exitDx=0;exitDy=0;" edge="1" parent="1" source="aQtirNLUVnoX9iIVkl9E-4" target="QEHf1LV6a4KE-_OXp7b6-30">
          <mxGeometry width="50" height="50" relative="1" as="geometry">
            <mxPoint x="299" y="330" as="sourcePoint" />
            <mxPoint x="349" y="280" as="targetPoint" />
          </mxGeometry>
        </mxCell>
        <mxCell id="aQtirNLUVnoX9iIVkl9E-11" value="muestras" style="whiteSpace=wrap;html=1;align=center;" vertex="1" parent="1">
          <mxGeometry x="593.62" y="670" width="100" height="40" as="geometry" />
        </mxCell>
        <mxCell id="aQtirNLUVnoX9iIVkl9E-13" value="plataformas" style="whiteSpace=wrap;html=1;align=center;" vertex="1" parent="1">
          <mxGeometry x="133.62" y="670" width="100" height="40" as="geometry" />
        </mxCell>
        <mxCell id="aQtirNLUVnoX9iIVkl9E-15" value="" style="endArrow=none;html=1;rounded=0;exitX=1;exitY=0.5;exitDx=0;exitDy=0;entryX=0;entryY=0.5;entryDx=0;entryDy=0;" edge="1" parent="1">
          <mxGeometry relative="1" as="geometry">
            <mxPoint x="233.62" y="684.71" as="sourcePoint" />
            <mxPoint x="593.62" y="684.71" as="targetPoint" />
            <Array as="points" />
          </mxGeometry>
        </mxCell>
        <mxCell id="aQtirNLUVnoX9iIVkl9E-16" value="1" style="resizable=0;html=1;whiteSpace=wrap;align=left;verticalAlign=bottom;" connectable="0" vertex="1" parent="aQtirNLUVnoX9iIVkl9E-15">
          <mxGeometry x="-1" relative="1" as="geometry">
            <mxPoint x="11" as="offset" />
          </mxGeometry>
        </mxCell>
        <mxCell id="aQtirNLUVnoX9iIVkl9E-17" value="N" style="resizable=0;html=1;whiteSpace=wrap;align=right;verticalAlign=bottom;" connectable="0" vertex="1" parent="aQtirNLUVnoX9iIVkl9E-15">
          <mxGeometry x="1" relative="1" as="geometry">
            <mxPoint x="-9" as="offset" />
          </mxGeometry>
        </mxCell>
        <mxCell id="aQtirNLUVnoX9iIVkl9E-18" value="" style="endArrow=none;html=1;rounded=0;exitX=1;exitY=0.75;exitDx=0;exitDy=0;entryX=0;entryY=0.75;entryDx=0;entryDy=0;" edge="1" parent="1">
          <mxGeometry relative="1" as="geometry">
            <mxPoint x="233.62" y="694.71" as="sourcePoint" />
            <mxPoint x="593.62" y="694.71" as="targetPoint" />
          </mxGeometry>
        </mxCell>
        <mxCell id="aQtirNLUVnoX9iIVkl9E-19" value="1" style="resizable=0;html=1;whiteSpace=wrap;align=left;verticalAlign=bottom;" connectable="0" vertex="1" parent="aQtirNLUVnoX9iIVkl9E-18">
          <mxGeometry x="-1" relative="1" as="geometry">
            <mxPoint x="11" y="20" as="offset" />
          </mxGeometry>
        </mxCell>
        <mxCell id="aQtirNLUVnoX9iIVkl9E-20" value="1" style="resizable=0;html=1;whiteSpace=wrap;align=right;verticalAlign=bottom;" connectable="0" vertex="1" parent="aQtirNLUVnoX9iIVkl9E-18">
          <mxGeometry x="1" relative="1" as="geometry">
            <mxPoint x="-9" y="20" as="offset" />
          </mxGeometry>
        </mxCell>
        <mxCell id="aQtirNLUVnoX9iIVkl9E-14" value="toman" style="shape=rhombus;perimeter=rhombusPerimeter;whiteSpace=wrap;html=1;align=center;" vertex="1" parent="1">
          <mxGeometry x="353.62" y="660" width="120" height="60" as="geometry" />
        </mxCell>
        <mxCell id="aQtirNLUVnoX9iIVkl9E-21" value="1:N" style="text;html=1;align=center;verticalAlign=middle;whiteSpace=wrap;rounded=0;" vertex="1" parent="1">
          <mxGeometry x="383.62" y="630" width="60" height="30" as="geometry" />
        </mxCell>
        <mxCell id="aQtirNLUVnoX9iIVkl9E-22" value="muestras" style="whiteSpace=wrap;html=1;align=center;" vertex="1" parent="1">
          <mxGeometry x="592.37" y="780" width="100" height="40" as="geometry" />
        </mxCell>
        <mxCell id="aQtirNLUVnoX9iIVkl9E-23" value="usuarios" style="whiteSpace=wrap;html=1;align=center;" vertex="1" parent="1">
          <mxGeometry x="132.37" y="780" width="100" height="40" as="geometry" />
        </mxCell>
        <mxCell id="aQtirNLUVnoX9iIVkl9E-24" value="" style="endArrow=none;html=1;rounded=0;exitX=1;exitY=0.5;exitDx=0;exitDy=0;entryX=0;entryY=0.5;entryDx=0;entryDy=0;" edge="1" parent="1">
          <mxGeometry relative="1" as="geometry">
            <mxPoint x="232.37" y="794.71" as="sourcePoint" />
            <mxPoint x="592.37" y="794.71" as="targetPoint" />
            <Array as="points" />
          </mxGeometry>
        </mxCell>
        <mxCell id="aQtirNLUVnoX9iIVkl9E-25" value="1" style="resizable=0;html=1;whiteSpace=wrap;align=left;verticalAlign=bottom;" connectable="0" vertex="1" parent="aQtirNLUVnoX9iIVkl9E-24">
          <mxGeometry x="-1" relative="1" as="geometry">
            <mxPoint x="11" as="offset" />
          </mxGeometry>
        </mxCell>
        <mxCell id="aQtirNLUVnoX9iIVkl9E-26" value="N" style="resizable=0;html=1;whiteSpace=wrap;align=right;verticalAlign=bottom;" connectable="0" vertex="1" parent="aQtirNLUVnoX9iIVkl9E-24">
          <mxGeometry x="1" relative="1" as="geometry">
            <mxPoint x="-9" as="offset" />
          </mxGeometry>
        </mxCell>
        <mxCell id="aQtirNLUVnoX9iIVkl9E-27" value="" style="endArrow=none;html=1;rounded=0;exitX=1;exitY=0.75;exitDx=0;exitDy=0;entryX=0;entryY=0.75;entryDx=0;entryDy=0;" edge="1" parent="1">
          <mxGeometry relative="1" as="geometry">
            <mxPoint x="232.37" y="804.71" as="sourcePoint" />
            <mxPoint x="592.37" y="804.71" as="targetPoint" />
          </mxGeometry>
        </mxCell>
        <mxCell id="aQtirNLUVnoX9iIVkl9E-28" value="N" style="resizable=0;html=1;whiteSpace=wrap;align=left;verticalAlign=bottom;" connectable="0" vertex="1" parent="aQtirNLUVnoX9iIVkl9E-27">
          <mxGeometry x="-1" relative="1" as="geometry">
            <mxPoint x="11" y="20" as="offset" />
          </mxGeometry>
        </mxCell>
        <mxCell id="aQtirNLUVnoX9iIVkl9E-29" value="1" style="resizable=0;html=1;whiteSpace=wrap;align=right;verticalAlign=bottom;" connectable="0" vertex="1" parent="aQtirNLUVnoX9iIVkl9E-27">
          <mxGeometry x="1" relative="1" as="geometry">
            <mxPoint x="-9" y="20" as="offset" />
          </mxGeometry>
        </mxCell>
        <mxCell id="aQtirNLUVnoX9iIVkl9E-30" value="descargan" style="shape=rhombus;perimeter=rhombusPerimeter;whiteSpace=wrap;html=1;align=center;" vertex="1" parent="1">
          <mxGeometry x="352.37" y="770" width="120" height="60" as="geometry" />
        </mxCell>
        <mxCell id="aQtirNLUVnoX9iIVkl9E-31" value="N:N" style="text;html=1;align=center;verticalAlign=middle;whiteSpace=wrap;rounded=0;" vertex="1" parent="1">
          <mxGeometry x="382.37" y="740" width="60" height="30" as="geometry" />
        </mxCell>
        <mxCell id="aQtirNLUVnoX9iIVkl9E-32" value="usuarios_ainf" style="whiteSpace=wrap;html=1;align=center;" vertex="1" parent="1">
          <mxGeometry x="363" y="460" width="100" height="40" as="geometry" />
        </mxCell>
        <mxCell id="aQtirNLUVnoX9iIVkl9E-33" value="num_muestras" style="ellipse;whiteSpace=wrap;html=1;align=center;" vertex="1" parent="1">
          <mxGeometry x="480" y="540" width="100" height="40" as="geometry" />
        </mxCell>
        <mxCell id="aQtirNLUVnoX9iIVkl9E-34" value="" style="endArrow=none;html=1;rounded=0;entryX=1;entryY=1;entryDx=0;entryDy=0;exitX=0.5;exitY=0;exitDx=0;exitDy=0;" edge="1" parent="1" source="aQtirNLUVnoX9iIVkl9E-33" target="aQtirNLUVnoX9iIVkl9E-32">
          <mxGeometry width="50" height="50" relative="1" as="geometry">
            <mxPoint x="379" y="500" as="sourcePoint" />
            <mxPoint x="429" y="450" as="targetPoint" />
          </mxGeometry>
        </mxCell>
        <mxCell id="aQtirNLUVnoX9iIVkl9E-39" value="fecha_nac" style="ellipse;whiteSpace=wrap;html=1;align=center;" vertex="1" parent="1">
          <mxGeometry x="240" y="540" width="100" height="40" as="geometry" />
        </mxCell>
        <mxCell id="aQtirNLUVnoX9iIVkl9E-40" value="país" style="ellipse;whiteSpace=wrap;html=1;align=center;" vertex="1" parent="1">
          <mxGeometry x="363" y="540" width="100" height="40" as="geometry" />
        </mxCell>
        <mxCell id="aQtirNLUVnoX9iIVkl9E-41" value="" style="endArrow=none;html=1;rounded=0;entryX=0.5;entryY=1;entryDx=0;entryDy=0;exitX=0.5;exitY=0;exitDx=0;exitDy=0;" edge="1" parent="1" source="aQtirNLUVnoX9iIVkl9E-40" target="aQtirNLUVnoX9iIVkl9E-32">
          <mxGeometry width="50" height="50" relative="1" as="geometry">
            <mxPoint x="299" y="470" as="sourcePoint" />
            <mxPoint x="349" y="420" as="targetPoint" />
          </mxGeometry>
        </mxCell>
        <mxCell id="aQtirNLUVnoX9iIVkl9E-42" value="" style="endArrow=none;html=1;rounded=0;entryX=0;entryY=1;entryDx=0;entryDy=0;exitX=0.5;exitY=0;exitDx=0;exitDy=0;" edge="1" parent="1" source="aQtirNLUVnoX9iIVkl9E-39" target="aQtirNLUVnoX9iIVkl9E-32">
          <mxGeometry width="50" height="50" relative="1" as="geometry">
            <mxPoint x="299" y="470" as="sourcePoint" />
            <mxPoint x="349" y="420" as="targetPoint" />
          </mxGeometry>
        </mxCell>
        <mxCell id="aQtirNLUVnoX9iIVkl9E-45" value="usuarios_ainf" style="whiteSpace=wrap;html=1;align=center;" vertex="1" parent="1">
          <mxGeometry x="592.62" y="890" width="100" height="40" as="geometry" />
        </mxCell>
        <mxCell id="aQtirNLUVnoX9iIVkl9E-46" value="usuarios" style="whiteSpace=wrap;html=1;align=center;" vertex="1" parent="1">
          <mxGeometry x="132.62" y="890" width="100" height="40" as="geometry" />
        </mxCell>
        <mxCell id="aQtirNLUVnoX9iIVkl9E-47" value="" style="endArrow=none;html=1;rounded=0;exitX=1;exitY=0.5;exitDx=0;exitDy=0;entryX=0;entryY=0.5;entryDx=0;entryDy=0;" edge="1" parent="1">
          <mxGeometry relative="1" as="geometry">
            <mxPoint x="232.62" y="904.71" as="sourcePoint" />
            <mxPoint x="592.62" y="904.71" as="targetPoint" />
            <Array as="points" />
          </mxGeometry>
        </mxCell>
        <mxCell id="aQtirNLUVnoX9iIVkl9E-48" value="1" style="resizable=0;html=1;whiteSpace=wrap;align=left;verticalAlign=bottom;" connectable="0" vertex="1" parent="aQtirNLUVnoX9iIVkl9E-47">
          <mxGeometry x="-1" relative="1" as="geometry">
            <mxPoint x="11" as="offset" />
          </mxGeometry>
        </mxCell>
        <mxCell id="aQtirNLUVnoX9iIVkl9E-49" value="1" style="resizable=0;html=1;whiteSpace=wrap;align=right;verticalAlign=bottom;" connectable="0" vertex="1" parent="aQtirNLUVnoX9iIVkl9E-47">
          <mxGeometry x="1" relative="1" as="geometry">
            <mxPoint x="-9" as="offset" />
          </mxGeometry>
        </mxCell>
        <mxCell id="aQtirNLUVnoX9iIVkl9E-50" value="" style="endArrow=none;html=1;rounded=0;exitX=1;exitY=0.75;exitDx=0;exitDy=0;entryX=0;entryY=0.75;entryDx=0;entryDy=0;" edge="1" parent="1">
          <mxGeometry relative="1" as="geometry">
            <mxPoint x="232.62" y="914.71" as="sourcePoint" />
            <mxPoint x="592.62" y="914.71" as="targetPoint" />
          </mxGeometry>
        </mxCell>
        <mxCell id="aQtirNLUVnoX9iIVkl9E-51" value="1" style="resizable=0;html=1;whiteSpace=wrap;align=left;verticalAlign=bottom;" connectable="0" vertex="1" parent="aQtirNLUVnoX9iIVkl9E-50">
          <mxGeometry x="-1" relative="1" as="geometry">
            <mxPoint x="11" y="20" as="offset" />
          </mxGeometry>
        </mxCell>
        <mxCell id="aQtirNLUVnoX9iIVkl9E-52" value="1" style="resizable=0;html=1;whiteSpace=wrap;align=right;verticalAlign=bottom;" connectable="0" vertex="1" parent="aQtirNLUVnoX9iIVkl9E-50">
          <mxGeometry x="1" relative="1" as="geometry">
            <mxPoint x="-9" y="20" as="offset" />
          </mxGeometry>
        </mxCell>
        <mxCell id="aQtirNLUVnoX9iIVkl9E-53" value="tienen" style="shape=rhombus;perimeter=rhombusPerimeter;whiteSpace=wrap;html=1;align=center;" vertex="1" parent="1">
          <mxGeometry x="352.62" y="880" width="120" height="60" as="geometry" />
        </mxCell>
        <mxCell id="aQtirNLUVnoX9iIVkl9E-54" value="N:N" style="text;html=1;align=center;verticalAlign=middle;whiteSpace=wrap;rounded=0;" vertex="1" parent="1">
          <mxGeometry x="382.62" y="850" width="60" height="30" as="geometry" />
        </mxCell>
        <mxCell id="aQtirNLUVnoX9iIVkl9E-55" value="muestras" style="whiteSpace=wrap;html=1;align=center;" vertex="1" parent="1">
          <mxGeometry x="375" y="1009" width="61" height="40" as="geometry" />
        </mxCell>
        <mxCell id="aQtirNLUVnoX9iIVkl9E-56" value="usuarios" style="whiteSpace=wrap;html=1;align=center;" vertex="1" parent="1">
          <mxGeometry x="107" y="1009" width="60" height="40" as="geometry" />
        </mxCell>
        <mxCell id="aQtirNLUVnoX9iIVkl9E-57" value="" style="endArrow=none;html=1;rounded=0;exitX=1;exitY=0.5;exitDx=0;exitDy=0;entryX=0;entryY=0.5;entryDx=0;entryDy=0;" edge="1" parent="1" source="aQtirNLUVnoX9iIVkl9E-56" target="aQtirNLUVnoX9iIVkl9E-55">
          <mxGeometry relative="1" as="geometry">
            <mxPoint x="196" y="1023.71" as="sourcePoint" />
            <mxPoint x="556" y="1023.71" as="targetPoint" />
            <Array as="points" />
          </mxGeometry>
        </mxCell>
        <mxCell id="aQtirNLUVnoX9iIVkl9E-58" value="N" style="resizable=0;html=1;whiteSpace=wrap;align=left;verticalAlign=bottom;" connectable="0" vertex="1" parent="aQtirNLUVnoX9iIVkl9E-57">
          <mxGeometry x="-1" relative="1" as="geometry">
            <mxPoint x="11" as="offset" />
          </mxGeometry>
        </mxCell>
        <mxCell id="aQtirNLUVnoX9iIVkl9E-59" value="N" style="resizable=0;html=1;whiteSpace=wrap;align=right;verticalAlign=bottom;" connectable="0" vertex="1" parent="aQtirNLUVnoX9iIVkl9E-57">
          <mxGeometry x="1" relative="1" as="geometry">
            <mxPoint x="-9" as="offset" />
          </mxGeometry>
        </mxCell>
        <mxCell id="aQtirNLUVnoX9iIVkl9E-63" value="descargan" style="shape=rhombus;perimeter=rhombusPerimeter;whiteSpace=wrap;html=1;align=center;" vertex="1" parent="1">
          <mxGeometry x="206" y="999" width="120" height="60" as="geometry" />
        </mxCell>
        <mxCell id="aQtirNLUVnoX9iIVkl9E-65" value="plataformas" style="whiteSpace=wrap;html=1;align=center;" vertex="1" parent="1">
          <mxGeometry x="647" y="1009" width="72.5" height="40" as="geometry" />
        </mxCell>
        <mxCell id="aQtirNLUVnoX9iIVkl9E-67" value="" style="endArrow=none;html=1;rounded=0;exitX=1;exitY=0.5;exitDx=0;exitDy=0;entryX=0;entryY=0.5;entryDx=0;entryDy=0;" edge="1" parent="1" source="aQtirNLUVnoX9iIVkl9E-55" target="aQtirNLUVnoX9iIVkl9E-65">
          <mxGeometry relative="1" as="geometry">
            <mxPoint x="556.5000000000002" y="1028.9999999999998" as="sourcePoint" />
            <mxPoint x="945.5" y="1023.71" as="targetPoint" />
            <Array as="points" />
          </mxGeometry>
        </mxCell>
        <mxCell id="aQtirNLUVnoX9iIVkl9E-68" value="N" style="resizable=0;html=1;whiteSpace=wrap;align=left;verticalAlign=bottom;" connectable="0" vertex="1" parent="aQtirNLUVnoX9iIVkl9E-67">
          <mxGeometry x="-1" relative="1" as="geometry">
            <mxPoint x="11" as="offset" />
          </mxGeometry>
        </mxCell>
        <mxCell id="aQtirNLUVnoX9iIVkl9E-69" value="1" style="resizable=0;html=1;whiteSpace=wrap;align=right;verticalAlign=bottom;" connectable="0" vertex="1" parent="aQtirNLUVnoX9iIVkl9E-67">
          <mxGeometry x="1" relative="1" as="geometry">
            <mxPoint x="-9" as="offset" />
          </mxGeometry>
        </mxCell>
        <mxCell id="aQtirNLUVnoX9iIVkl9E-70" value="toman" style="shape=rhombus;perimeter=rhombusPerimeter;whiteSpace=wrap;html=1;align=center;" vertex="1" parent="1">
          <mxGeometry x="485.5" y="999" width="120" height="60" as="geometry" />
        </mxCell>
        <mxCell id="aQtirNLUVnoX9iIVkl9E-72" value="usuarios_ainf" style="whiteSpace=wrap;html=1;align=center;" vertex="1" parent="1">
          <mxGeometry x="375" y="1089" width="80" height="40" as="geometry" />
        </mxCell>
        <mxCell id="aQtirNLUVnoX9iIVkl9E-74" value="" style="endArrow=none;html=1;rounded=0;exitX=1;exitY=1;exitDx=0;exitDy=0;entryX=0;entryY=0.5;entryDx=0;entryDy=0;" edge="1" parent="1" source="aQtirNLUVnoX9iIVkl9E-56" target="aQtirNLUVnoX9iIVkl9E-77">
          <mxGeometry relative="1" as="geometry">
            <mxPoint x="167" y="1079" as="sourcePoint" />
            <mxPoint x="527" y="1079" as="targetPoint" />
          </mxGeometry>
        </mxCell>
        <mxCell id="aQtirNLUVnoX9iIVkl9E-75" value="1" style="resizable=0;html=1;whiteSpace=wrap;align=left;verticalAlign=bottom;" connectable="0" vertex="1" parent="aQtirNLUVnoX9iIVkl9E-74">
          <mxGeometry x="-1" relative="1" as="geometry">
            <mxPoint x="13" y="10" as="offset" />
          </mxGeometry>
        </mxCell>
        <mxCell id="aQtirNLUVnoX9iIVkl9E-77" value="tienen" style="shape=rhombus;perimeter=rhombusPerimeter;whiteSpace=wrap;html=1;align=center;" vertex="1" parent="1">
          <mxGeometry x="206" y="1079" width="120" height="60" as="geometry" />
        </mxCell>
        <mxCell id="aQtirNLUVnoX9iIVkl9E-79" value="" style="endArrow=none;html=1;rounded=0;exitX=1;exitY=0.5;exitDx=0;exitDy=0;entryX=0;entryY=0.5;entryDx=0;entryDy=0;" edge="1" parent="1" source="aQtirNLUVnoX9iIVkl9E-77" target="aQtirNLUVnoX9iIVkl9E-72">
          <mxGeometry relative="1" as="geometry">
            <mxPoint x="226" y="1019" as="sourcePoint" />
            <mxPoint x="265" y="1109" as="targetPoint" />
          </mxGeometry>
        </mxCell>
        <mxCell id="aQtirNLUVnoX9iIVkl9E-81" value="1" style="resizable=0;html=1;whiteSpace=wrap;align=right;verticalAlign=bottom;" connectable="0" vertex="1" parent="aQtirNLUVnoX9iIVkl9E-79">
          <mxGeometry x="1" relative="1" as="geometry">
            <mxPoint x="-11" as="offset" />
          </mxGeometry>
        </mxCell>
      </root>
    </mxGraphModel>
  </diagram>
  <diagram id="jJlB9KP8JjO_wFEdg0XG" name="Tablas">
    <mxGraphModel grid="1" page="1" gridSize="10" guides="1" tooltips="1" connect="1" arrows="1" fold="1" pageScale="1" pageWidth="827" pageHeight="1169" math="0" shadow="0">
      <root>
        <mxCell id="0" />
        <mxCell id="1" parent="0" />
        <mxCell id="QI8GyUYM_MH54oQovk_u-1" value="muestras" style="shape=table;startSize=30;container=1;collapsible=1;childLayout=tableLayout;fixedRows=1;rowLines=0;fontStyle=1;align=center;resizeLast=1;html=1;" vertex="1" parent="1">
          <mxGeometry x="19" y="80" width="201" height="300" as="geometry" />
        </mxCell>
        <mxCell id="QI8GyUYM_MH54oQovk_u-2" value="" style="shape=tableRow;horizontal=0;startSize=0;swimlaneHead=0;swimlaneBody=0;fillColor=none;collapsible=0;dropTarget=0;points=[[0,0.5],[1,0.5]];portConstraint=eastwest;top=0;left=0;right=0;bottom=1;" vertex="1" parent="QI8GyUYM_MH54oQovk_u-1">
          <mxGeometry y="30" width="201" height="30" as="geometry" />
        </mxCell>
        <mxCell id="QI8GyUYM_MH54oQovk_u-3" value="PK" style="shape=partialRectangle;connectable=0;fillColor=none;top=0;left=0;bottom=0;right=0;fontStyle=1;overflow=hidden;whiteSpace=wrap;html=1;" vertex="1" parent="QI8GyUYM_MH54oQovk_u-2">
          <mxGeometry width="91" height="30" as="geometry">
            <mxRectangle width="91" height="30" as="alternateBounds" />
          </mxGeometry>
        </mxCell>
        <mxCell id="QI8GyUYM_MH54oQovk_u-4" value="id_muestra" style="shape=partialRectangle;connectable=0;fillColor=none;top=0;left=0;bottom=0;right=0;align=left;spacingLeft=6;fontStyle=5;overflow=hidden;whiteSpace=wrap;html=1;" vertex="1" parent="QI8GyUYM_MH54oQovk_u-2">
          <mxGeometry x="91" width="110" height="30" as="geometry">
            <mxRectangle width="110" height="30" as="alternateBounds" />
          </mxGeometry>
        </mxCell>
        <mxCell id="hBYNIxlsABJpONRMY5VQ-1" style="shape=tableRow;horizontal=0;startSize=0;swimlaneHead=0;swimlaneBody=0;fillColor=none;collapsible=0;dropTarget=0;points=[[0,0.5],[1,0.5]];portConstraint=eastwest;top=0;left=0;right=0;bottom=1;" vertex="1" parent="QI8GyUYM_MH54oQovk_u-1">
          <mxGeometry y="60" width="201" height="30" as="geometry" />
        </mxCell>
        <mxCell id="hBYNIxlsABJpONRMY5VQ-2" value="FK" style="shape=partialRectangle;connectable=0;fillColor=none;top=0;left=0;bottom=0;right=0;fontStyle=1;overflow=hidden;whiteSpace=wrap;html=1;" vertex="1" parent="hBYNIxlsABJpONRMY5VQ-1">
          <mxGeometry width="91" height="30" as="geometry">
            <mxRectangle width="91" height="30" as="alternateBounds" />
          </mxGeometry>
        </mxCell>
        <mxCell id="hBYNIxlsABJpONRMY5VQ-3" value="id_plataforma" style="shape=partialRectangle;connectable=0;fillColor=none;top=0;left=0;bottom=0;right=0;align=left;spacingLeft=6;fontStyle=5;overflow=hidden;whiteSpace=wrap;html=1;" vertex="1" parent="hBYNIxlsABJpONRMY5VQ-1">
          <mxGeometry x="91" width="110" height="30" as="geometry">
            <mxRectangle width="110" height="30" as="alternateBounds" />
          </mxGeometry>
        </mxCell>
        <mxCell id="QI8GyUYM_MH54oQovk_u-5" value="" style="shape=tableRow;horizontal=0;startSize=0;swimlaneHead=0;swimlaneBody=0;fillColor=none;collapsible=0;dropTarget=0;points=[[0,0.5],[1,0.5]];portConstraint=eastwest;top=0;left=0;right=0;bottom=0;" vertex="1" parent="QI8GyUYM_MH54oQovk_u-1">
          <mxGeometry y="90" width="201" height="30" as="geometry" />
        </mxCell>
        <mxCell id="QI8GyUYM_MH54oQovk_u-6" value="VARCHAR(255)" style="shape=partialRectangle;connectable=0;fillColor=none;top=0;left=0;bottom=0;right=0;editable=1;overflow=hidden;whiteSpace=wrap;html=1;" vertex="1" parent="QI8GyUYM_MH54oQovk_u-5">
          <mxGeometry width="91" height="30" as="geometry">
            <mxRectangle width="91" height="30" as="alternateBounds" />
          </mxGeometry>
        </mxCell>
        <mxCell id="QI8GyUYM_MH54oQovk_u-7" value="url_img" style="shape=partialRectangle;connectable=0;fillColor=none;top=0;left=0;bottom=0;right=0;align=left;spacingLeft=6;overflow=hidden;whiteSpace=wrap;html=1;" vertex="1" parent="QI8GyUYM_MH54oQovk_u-5">
          <mxGeometry x="91" width="110" height="30" as="geometry">
            <mxRectangle width="110" height="30" as="alternateBounds" />
          </mxGeometry>
        </mxCell>
        <mxCell id="QI8GyUYM_MH54oQovk_u-8" value="" style="shape=tableRow;horizontal=0;startSize=0;swimlaneHead=0;swimlaneBody=0;fillColor=none;collapsible=0;dropTarget=0;points=[[0,0.5],[1,0.5]];portConstraint=eastwest;top=0;left=0;right=0;bottom=0;" vertex="1" parent="QI8GyUYM_MH54oQovk_u-1">
          <mxGeometry y="120" width="201" height="30" as="geometry" />
        </mxCell>
        <mxCell id="QI8GyUYM_MH54oQovk_u-9" value="VARCHAR(255)" style="shape=partialRectangle;connectable=0;fillColor=none;top=0;left=0;bottom=0;right=0;editable=1;overflow=hidden;whiteSpace=wrap;html=1;" vertex="1" parent="QI8GyUYM_MH54oQovk_u-8">
          <mxGeometry width="91" height="30" as="geometry">
            <mxRectangle width="91" height="30" as="alternateBounds" />
          </mxGeometry>
        </mxCell>
        <mxCell id="QI8GyUYM_MH54oQovk_u-10" value="nombre_img" style="shape=partialRectangle;connectable=0;fillColor=none;top=0;left=0;bottom=0;right=0;align=left;spacingLeft=6;overflow=hidden;whiteSpace=wrap;html=1;" vertex="1" parent="QI8GyUYM_MH54oQovk_u-8">
          <mxGeometry x="91" width="110" height="30" as="geometry">
            <mxRectangle width="110" height="30" as="alternateBounds" />
          </mxGeometry>
        </mxCell>
        <mxCell id="uYrWhPSEVXHdLB7MVSYd-1" style="shape=tableRow;horizontal=0;startSize=0;swimlaneHead=0;swimlaneBody=0;fillColor=none;collapsible=0;dropTarget=0;points=[[0,0.5],[1,0.5]];portConstraint=eastwest;top=0;left=0;right=0;bottom=0;" vertex="1" parent="QI8GyUYM_MH54oQovk_u-1">
          <mxGeometry y="150" width="201" height="30" as="geometry" />
        </mxCell>
        <mxCell id="uYrWhPSEVXHdLB7MVSYd-2" value="DATE" style="shape=partialRectangle;connectable=0;fillColor=none;top=0;left=0;bottom=0;right=0;editable=1;overflow=hidden;whiteSpace=wrap;html=1;" vertex="1" parent="uYrWhPSEVXHdLB7MVSYd-1">
          <mxGeometry width="91" height="30" as="geometry">
            <mxRectangle width="91" height="30" as="alternateBounds" />
          </mxGeometry>
        </mxCell>
        <mxCell id="uYrWhPSEVXHdLB7MVSYd-3" value="fecha_img" style="shape=partialRectangle;connectable=0;fillColor=none;top=0;left=0;bottom=0;right=0;align=left;spacingLeft=6;overflow=hidden;whiteSpace=wrap;html=1;" vertex="1" parent="uYrWhPSEVXHdLB7MVSYd-1">
          <mxGeometry x="91" width="110" height="30" as="geometry">
            <mxRectangle width="110" height="30" as="alternateBounds" />
          </mxGeometry>
        </mxCell>
        <mxCell id="uYrWhPSEVXHdLB7MVSYd-4" style="shape=tableRow;horizontal=0;startSize=0;swimlaneHead=0;swimlaneBody=0;fillColor=none;collapsible=0;dropTarget=0;points=[[0,0.5],[1,0.5]];portConstraint=eastwest;top=0;left=0;right=0;bottom=0;" vertex="1" parent="QI8GyUYM_MH54oQovk_u-1">
          <mxGeometry y="180" width="201" height="30" as="geometry" />
        </mxCell>
        <mxCell id="uYrWhPSEVXHdLB7MVSYd-5" value="VARCHAR(255)" style="shape=partialRectangle;connectable=0;fillColor=none;top=0;left=0;bottom=0;right=0;editable=1;overflow=hidden;whiteSpace=wrap;html=1;" vertex="1" parent="uYrWhPSEVXHdLB7MVSYd-4">
          <mxGeometry width="91" height="30" as="geometry">
            <mxRectangle width="91" height="30" as="alternateBounds" />
          </mxGeometry>
        </mxCell>
        <mxCell id="uYrWhPSEVXHdLB7MVSYd-6" value="ubicación" style="shape=partialRectangle;connectable=0;fillColor=none;top=0;left=0;bottom=0;right=0;align=left;spacingLeft=6;overflow=hidden;whiteSpace=wrap;html=1;" vertex="1" parent="uYrWhPSEVXHdLB7MVSYd-4">
          <mxGeometry x="91" width="110" height="30" as="geometry">
            <mxRectangle width="110" height="30" as="alternateBounds" />
          </mxGeometry>
        </mxCell>
        <mxCell id="uYrWhPSEVXHdLB7MVSYd-10" style="shape=tableRow;horizontal=0;startSize=0;swimlaneHead=0;swimlaneBody=0;fillColor=none;collapsible=0;dropTarget=0;points=[[0,0.5],[1,0.5]];portConstraint=eastwest;top=0;left=0;right=0;bottom=0;" vertex="1" parent="QI8GyUYM_MH54oQovk_u-1">
          <mxGeometry y="210" width="201" height="30" as="geometry" />
        </mxCell>
        <mxCell id="uYrWhPSEVXHdLB7MVSYd-11" value="BOOLEAN" style="shape=partialRectangle;connectable=0;fillColor=none;top=0;left=0;bottom=0;right=0;editable=1;overflow=hidden;whiteSpace=wrap;html=1;" vertex="1" parent="uYrWhPSEVXHdLB7MVSYd-10">
          <mxGeometry width="91" height="30" as="geometry">
            <mxRectangle width="91" height="30" as="alternateBounds" />
          </mxGeometry>
        </mxCell>
        <mxCell id="uYrWhPSEVXHdLB7MVSYd-12" value="destacado" style="shape=partialRectangle;connectable=0;fillColor=none;top=0;left=0;bottom=0;right=0;align=left;spacingLeft=6;overflow=hidden;whiteSpace=wrap;html=1;" vertex="1" parent="uYrWhPSEVXHdLB7MVSYd-10">
          <mxGeometry x="91" width="110" height="30" as="geometry">
            <mxRectangle width="110" height="30" as="alternateBounds" />
          </mxGeometry>
        </mxCell>
        <mxCell id="uYrWhPSEVXHdLB7MVSYd-13" style="shape=tableRow;horizontal=0;startSize=0;swimlaneHead=0;swimlaneBody=0;fillColor=none;collapsible=0;dropTarget=0;points=[[0,0.5],[1,0.5]];portConstraint=eastwest;top=0;left=0;right=0;bottom=0;" vertex="1" parent="QI8GyUYM_MH54oQovk_u-1">
          <mxGeometry y="240" width="201" height="30" as="geometry" />
        </mxCell>
        <mxCell id="uYrWhPSEVXHdLB7MVSYd-14" value="VARCHAR(255)" style="shape=partialRectangle;connectable=0;fillColor=none;top=0;left=0;bottom=0;right=0;editable=1;overflow=hidden;whiteSpace=wrap;html=1;" vertex="1" parent="uYrWhPSEVXHdLB7MVSYd-13">
          <mxGeometry width="91" height="30" as="geometry">
            <mxRectangle width="91" height="30" as="alternateBounds" />
          </mxGeometry>
        </mxCell>
        <mxCell id="uYrWhPSEVXHdLB7MVSYd-15" value="alt_img" style="shape=partialRectangle;connectable=0;fillColor=none;top=0;left=0;bottom=0;right=0;align=left;spacingLeft=6;overflow=hidden;whiteSpace=wrap;html=1;" vertex="1" parent="uYrWhPSEVXHdLB7MVSYd-13">
          <mxGeometry x="91" width="110" height="30" as="geometry">
            <mxRectangle width="110" height="30" as="alternateBounds" />
          </mxGeometry>
        </mxCell>
        <mxCell id="yqi594We8rbLnXG7-PG4-1" style="shape=tableRow;horizontal=0;startSize=0;swimlaneHead=0;swimlaneBody=0;fillColor=none;collapsible=0;dropTarget=0;points=[[0,0.5],[1,0.5]];portConstraint=eastwest;top=0;left=0;right=0;bottom=0;" vertex="1" parent="QI8GyUYM_MH54oQovk_u-1">
          <mxGeometry y="270" width="201" height="30" as="geometry" />
        </mxCell>
        <mxCell id="yqi594We8rbLnXG7-PG4-2" value="BOOLEAN" style="shape=partialRectangle;connectable=0;fillColor=none;top=0;left=0;bottom=0;right=0;editable=1;overflow=hidden;whiteSpace=wrap;html=1;" vertex="1" parent="yqi594We8rbLnXG7-PG4-1">
          <mxGeometry width="91" height="30" as="geometry">
            <mxRectangle width="91" height="30" as="alternateBounds" />
          </mxGeometry>
        </mxCell>
        <mxCell id="yqi594We8rbLnXG7-PG4-3" value="muestra_activa" style="shape=partialRectangle;connectable=0;fillColor=none;top=0;left=0;bottom=0;right=0;align=left;spacingLeft=6;overflow=hidden;whiteSpace=wrap;html=1;" vertex="1" parent="yqi594We8rbLnXG7-PG4-1">
          <mxGeometry x="91" width="110" height="30" as="geometry">
            <mxRectangle width="110" height="30" as="alternateBounds" />
          </mxGeometry>
        </mxCell>
        <mxCell id="mTCIQwDG1VTHyRCCSG2a-35" value="plataformas" style="shape=table;startSize=30;container=1;collapsible=1;childLayout=tableLayout;fixedRows=1;rowLines=0;fontStyle=1;align=center;resizeLast=1;html=1;" vertex="1" parent="1">
          <mxGeometry x="19" y="400" width="201.0000000000001" height="150" as="geometry" />
        </mxCell>
        <mxCell id="mTCIQwDG1VTHyRCCSG2a-36" value="" style="shape=tableRow;horizontal=0;startSize=0;swimlaneHead=0;swimlaneBody=0;fillColor=none;collapsible=0;dropTarget=0;points=[[0,0.5],[1,0.5]];portConstraint=eastwest;top=0;left=0;right=0;bottom=1;" vertex="1" parent="mTCIQwDG1VTHyRCCSG2a-35">
          <mxGeometry y="30" width="201.0000000000001" height="30" as="geometry" />
        </mxCell>
        <mxCell id="mTCIQwDG1VTHyRCCSG2a-37" value="PK" style="shape=partialRectangle;connectable=0;fillColor=none;top=0;left=0;bottom=0;right=0;fontStyle=1;overflow=hidden;whiteSpace=wrap;html=1;" vertex="1" parent="mTCIQwDG1VTHyRCCSG2a-36">
          <mxGeometry width="90.00000000000011" height="30" as="geometry">
            <mxRectangle width="90.00000000000011" height="30" as="alternateBounds" />
          </mxGeometry>
        </mxCell>
        <mxCell id="mTCIQwDG1VTHyRCCSG2a-38" value="id_plataforma" style="shape=partialRectangle;connectable=0;fillColor=none;top=0;left=0;bottom=0;right=0;align=left;spacingLeft=6;fontStyle=5;overflow=hidden;whiteSpace=wrap;html=1;" vertex="1" parent="mTCIQwDG1VTHyRCCSG2a-36">
          <mxGeometry x="90.00000000000011" width="111" height="30" as="geometry">
            <mxRectangle width="111" height="30" as="alternateBounds" />
          </mxGeometry>
        </mxCell>
        <mxCell id="mTCIQwDG1VTHyRCCSG2a-39" value="" style="shape=tableRow;horizontal=0;startSize=0;swimlaneHead=0;swimlaneBody=0;fillColor=none;collapsible=0;dropTarget=0;points=[[0,0.5],[1,0.5]];portConstraint=eastwest;top=0;left=0;right=0;bottom=0;" vertex="1" parent="mTCIQwDG1VTHyRCCSG2a-35">
          <mxGeometry y="60" width="201.0000000000001" height="30" as="geometry" />
        </mxCell>
        <mxCell id="mTCIQwDG1VTHyRCCSG2a-40" value="VARCHAR(45)" style="shape=partialRectangle;connectable=0;fillColor=none;top=0;left=0;bottom=0;right=0;editable=1;overflow=hidden;whiteSpace=wrap;html=1;" vertex="1" parent="mTCIQwDG1VTHyRCCSG2a-39">
          <mxGeometry width="90.00000000000011" height="30" as="geometry">
            <mxRectangle width="90.00000000000011" height="30" as="alternateBounds" />
          </mxGeometry>
        </mxCell>
        <mxCell id="mTCIQwDG1VTHyRCCSG2a-41" value="nombre_plat" style="shape=partialRectangle;connectable=0;fillColor=none;top=0;left=0;bottom=0;right=0;align=left;spacingLeft=6;overflow=hidden;whiteSpace=wrap;html=1;" vertex="1" parent="mTCIQwDG1VTHyRCCSG2a-39">
          <mxGeometry x="90.00000000000011" width="111" height="30" as="geometry">
            <mxRectangle width="111" height="30" as="alternateBounds" />
          </mxGeometry>
        </mxCell>
        <mxCell id="mTCIQwDG1VTHyRCCSG2a-42" value="" style="shape=tableRow;horizontal=0;startSize=0;swimlaneHead=0;swimlaneBody=0;fillColor=none;collapsible=0;dropTarget=0;points=[[0,0.5],[1,0.5]];portConstraint=eastwest;top=0;left=0;right=0;bottom=0;" vertex="1" parent="mTCIQwDG1VTHyRCCSG2a-35">
          <mxGeometry y="90" width="201.0000000000001" height="30" as="geometry" />
        </mxCell>
        <mxCell id="mTCIQwDG1VTHyRCCSG2a-43" value="VARCHAR(45)" style="shape=partialRectangle;connectable=0;fillColor=none;top=0;left=0;bottom=0;right=0;editable=1;overflow=hidden;whiteSpace=wrap;html=1;" vertex="1" parent="mTCIQwDG1VTHyRCCSG2a-42">
          <mxGeometry width="90.00000000000011" height="30" as="geometry">
            <mxRectangle width="90.00000000000011" height="30" as="alternateBounds" />
          </mxGeometry>
        </mxCell>
        <mxCell id="mTCIQwDG1VTHyRCCSG2a-44" value="fabricante" style="shape=partialRectangle;connectable=0;fillColor=none;top=0;left=0;bottom=0;right=0;align=left;spacingLeft=6;overflow=hidden;whiteSpace=wrap;html=1;" vertex="1" parent="mTCIQwDG1VTHyRCCSG2a-42">
          <mxGeometry x="90.00000000000011" width="111" height="30" as="geometry">
            <mxRectangle width="111" height="30" as="alternateBounds" />
          </mxGeometry>
        </mxCell>
        <mxCell id="yqi594We8rbLnXG7-PG4-4" style="shape=tableRow;horizontal=0;startSize=0;swimlaneHead=0;swimlaneBody=0;fillColor=none;collapsible=0;dropTarget=0;points=[[0,0.5],[1,0.5]];portConstraint=eastwest;top=0;left=0;right=0;bottom=0;" vertex="1" parent="mTCIQwDG1VTHyRCCSG2a-35">
          <mxGeometry y="120" width="201.0000000000001" height="30" as="geometry" />
        </mxCell>
        <mxCell id="yqi594We8rbLnXG7-PG4-5" value="BOOLEAN" style="shape=partialRectangle;connectable=0;fillColor=none;top=0;left=0;bottom=0;right=0;editable=1;overflow=hidden;whiteSpace=wrap;html=1;" vertex="1" parent="yqi594We8rbLnXG7-PG4-4">
          <mxGeometry width="90.00000000000011" height="30" as="geometry">
            <mxRectangle width="90.00000000000011" height="30" as="alternateBounds" />
          </mxGeometry>
        </mxCell>
        <mxCell id="yqi594We8rbLnXG7-PG4-6" value="plataforma_activa" style="shape=partialRectangle;connectable=0;fillColor=none;top=0;left=0;bottom=0;right=0;align=left;spacingLeft=6;overflow=hidden;whiteSpace=wrap;html=1;" vertex="1" parent="yqi594We8rbLnXG7-PG4-4">
          <mxGeometry x="90.00000000000011" width="111" height="30" as="geometry">
            <mxRectangle width="111" height="30" as="alternateBounds" />
          </mxGeometry>
        </mxCell>
        <mxCell id="UDE4ZvqMbanx0RUSKuwu-1" value="usuarios" style="shape=table;startSize=30;container=1;collapsible=1;childLayout=tableLayout;fixedRows=1;rowLines=0;fontStyle=1;align=center;resizeLast=1;html=1;" vertex="1" parent="1">
          <mxGeometry x="589" y="80" width="180" height="210" as="geometry" />
        </mxCell>
        <mxCell id="UDE4ZvqMbanx0RUSKuwu-2" value="" style="shape=tableRow;horizontal=0;startSize=0;swimlaneHead=0;swimlaneBody=0;fillColor=none;collapsible=0;dropTarget=0;points=[[0,0.5],[1,0.5]];portConstraint=eastwest;top=0;left=0;right=0;bottom=1;" vertex="1" parent="UDE4ZvqMbanx0RUSKuwu-1">
          <mxGeometry y="30" width="180" height="30" as="geometry" />
        </mxCell>
        <mxCell id="UDE4ZvqMbanx0RUSKuwu-3" value="PK" style="shape=partialRectangle;connectable=0;fillColor=none;top=0;left=0;bottom=0;right=0;fontStyle=1;overflow=hidden;whiteSpace=wrap;html=1;" vertex="1" parent="UDE4ZvqMbanx0RUSKuwu-2">
          <mxGeometry width="91" height="30" as="geometry">
            <mxRectangle width="91" height="30" as="alternateBounds" />
          </mxGeometry>
        </mxCell>
        <mxCell id="UDE4ZvqMbanx0RUSKuwu-4" value="id_usuario" style="shape=partialRectangle;connectable=0;fillColor=none;top=0;left=0;bottom=0;right=0;align=left;spacingLeft=6;fontStyle=5;overflow=hidden;whiteSpace=wrap;html=1;" vertex="1" parent="UDE4ZvqMbanx0RUSKuwu-2">
          <mxGeometry x="91" width="89" height="30" as="geometry">
            <mxRectangle width="89" height="30" as="alternateBounds" />
          </mxGeometry>
        </mxCell>
        <mxCell id="UDE4ZvqMbanx0RUSKuwu-5" value="" style="shape=tableRow;horizontal=0;startSize=0;swimlaneHead=0;swimlaneBody=0;fillColor=none;collapsible=0;dropTarget=0;points=[[0,0.5],[1,0.5]];portConstraint=eastwest;top=0;left=0;right=0;bottom=0;" vertex="1" parent="UDE4ZvqMbanx0RUSKuwu-1">
          <mxGeometry y="60" width="180" height="30" as="geometry" />
        </mxCell>
        <mxCell id="UDE4ZvqMbanx0RUSKuwu-6" value="VARCHAR(45)" style="shape=partialRectangle;connectable=0;fillColor=none;top=0;left=0;bottom=0;right=0;editable=1;overflow=hidden;whiteSpace=wrap;html=1;" vertex="1" parent="UDE4ZvqMbanx0RUSKuwu-5">
          <mxGeometry width="91" height="30" as="geometry">
            <mxRectangle width="91" height="30" as="alternateBounds" />
          </mxGeometry>
        </mxCell>
        <mxCell id="UDE4ZvqMbanx0RUSKuwu-7" value="nombre_us" style="shape=partialRectangle;connectable=0;fillColor=none;top=0;left=0;bottom=0;right=0;align=left;spacingLeft=6;overflow=hidden;whiteSpace=wrap;html=1;" vertex="1" parent="UDE4ZvqMbanx0RUSKuwu-5">
          <mxGeometry x="91" width="89" height="30" as="geometry">
            <mxRectangle width="89" height="30" as="alternateBounds" />
          </mxGeometry>
        </mxCell>
        <mxCell id="UDE4ZvqMbanx0RUSKuwu-8" value="" style="shape=tableRow;horizontal=0;startSize=0;swimlaneHead=0;swimlaneBody=0;fillColor=none;collapsible=0;dropTarget=0;points=[[0,0.5],[1,0.5]];portConstraint=eastwest;top=0;left=0;right=0;bottom=0;" vertex="1" parent="UDE4ZvqMbanx0RUSKuwu-1">
          <mxGeometry y="90" width="180" height="30" as="geometry" />
        </mxCell>
        <mxCell id="UDE4ZvqMbanx0RUSKuwu-9" value="VARCHAR(45)" style="shape=partialRectangle;connectable=0;fillColor=none;top=0;left=0;bottom=0;right=0;editable=1;overflow=hidden;whiteSpace=wrap;html=1;" vertex="1" parent="UDE4ZvqMbanx0RUSKuwu-8">
          <mxGeometry width="91" height="30" as="geometry">
            <mxRectangle width="91" height="30" as="alternateBounds" />
          </mxGeometry>
        </mxCell>
        <mxCell id="UDE4ZvqMbanx0RUSKuwu-10" value="apellido" style="shape=partialRectangle;connectable=0;fillColor=none;top=0;left=0;bottom=0;right=0;align=left;spacingLeft=6;overflow=hidden;whiteSpace=wrap;html=1;" vertex="1" parent="UDE4ZvqMbanx0RUSKuwu-8">
          <mxGeometry x="91" width="89" height="30" as="geometry">
            <mxRectangle width="89" height="30" as="alternateBounds" />
          </mxGeometry>
        </mxCell>
        <mxCell id="UDE4ZvqMbanx0RUSKuwu-11" style="shape=tableRow;horizontal=0;startSize=0;swimlaneHead=0;swimlaneBody=0;fillColor=none;collapsible=0;dropTarget=0;points=[[0,0.5],[1,0.5]];portConstraint=eastwest;top=0;left=0;right=0;bottom=0;" vertex="1" parent="UDE4ZvqMbanx0RUSKuwu-1">
          <mxGeometry y="120" width="180" height="30" as="geometry" />
        </mxCell>
        <mxCell id="UDE4ZvqMbanx0RUSKuwu-12" value="VARCHAR(100)" style="shape=partialRectangle;connectable=0;fillColor=none;top=0;left=0;bottom=0;right=0;editable=1;overflow=hidden;whiteSpace=wrap;html=1;" vertex="1" parent="UDE4ZvqMbanx0RUSKuwu-11">
          <mxGeometry width="91" height="30" as="geometry">
            <mxRectangle width="91" height="30" as="alternateBounds" />
          </mxGeometry>
        </mxCell>
        <mxCell id="UDE4ZvqMbanx0RUSKuwu-13" value="email" style="shape=partialRectangle;connectable=0;fillColor=none;top=0;left=0;bottom=0;right=0;align=left;spacingLeft=6;overflow=hidden;whiteSpace=wrap;html=1;" vertex="1" parent="UDE4ZvqMbanx0RUSKuwu-11">
          <mxGeometry x="91" width="89" height="30" as="geometry">
            <mxRectangle width="89" height="30" as="alternateBounds" />
          </mxGeometry>
        </mxCell>
        <mxCell id="UDE4ZvqMbanx0RUSKuwu-14" style="shape=tableRow;horizontal=0;startSize=0;swimlaneHead=0;swimlaneBody=0;fillColor=none;collapsible=0;dropTarget=0;points=[[0,0.5],[1,0.5]];portConstraint=eastwest;top=0;left=0;right=0;bottom=0;" vertex="1" parent="UDE4ZvqMbanx0RUSKuwu-1">
          <mxGeometry y="150" width="180" height="30" as="geometry" />
        </mxCell>
        <mxCell id="UDE4ZvqMbanx0RUSKuwu-15" value="VARCHAR(12)" style="shape=partialRectangle;connectable=0;fillColor=none;top=0;left=0;bottom=0;right=0;editable=1;overflow=hidden;whiteSpace=wrap;html=1;" vertex="1" parent="UDE4ZvqMbanx0RUSKuwu-14">
          <mxGeometry width="91" height="30" as="geometry">
            <mxRectangle width="91" height="30" as="alternateBounds" />
          </mxGeometry>
        </mxCell>
        <mxCell id="UDE4ZvqMbanx0RUSKuwu-16" value="contraseña" style="shape=partialRectangle;connectable=0;fillColor=none;top=0;left=0;bottom=0;right=0;align=left;spacingLeft=6;overflow=hidden;whiteSpace=wrap;html=1;" vertex="1" parent="UDE4ZvqMbanx0RUSKuwu-14">
          <mxGeometry x="91" width="89" height="30" as="geometry">
            <mxRectangle width="89" height="30" as="alternateBounds" />
          </mxGeometry>
        </mxCell>
        <mxCell id="yqi594We8rbLnXG7-PG4-7" style="shape=tableRow;horizontal=0;startSize=0;swimlaneHead=0;swimlaneBody=0;fillColor=none;collapsible=0;dropTarget=0;points=[[0,0.5],[1,0.5]];portConstraint=eastwest;top=0;left=0;right=0;bottom=0;" vertex="1" parent="UDE4ZvqMbanx0RUSKuwu-1">
          <mxGeometry y="180" width="180" height="30" as="geometry" />
        </mxCell>
        <mxCell id="yqi594We8rbLnXG7-PG4-8" value="BOOLEAN" style="shape=partialRectangle;connectable=0;fillColor=none;top=0;left=0;bottom=0;right=0;editable=1;overflow=hidden;whiteSpace=wrap;html=1;" vertex="1" parent="yqi594We8rbLnXG7-PG4-7">
          <mxGeometry width="91" height="30" as="geometry">
            <mxRectangle width="91" height="30" as="alternateBounds" />
          </mxGeometry>
        </mxCell>
        <mxCell id="yqi594We8rbLnXG7-PG4-9" value="usuario_activo" style="shape=partialRectangle;connectable=0;fillColor=none;top=0;left=0;bottom=0;right=0;align=left;spacingLeft=6;overflow=hidden;whiteSpace=wrap;html=1;" vertex="1" parent="yqi594We8rbLnXG7-PG4-7">
          <mxGeometry x="91" width="89" height="30" as="geometry">
            <mxRectangle width="89" height="30" as="alternateBounds" />
          </mxGeometry>
        </mxCell>
        <mxCell id="VGP13HnjTHXns2idwetP-1" value="&lt;span style=&quot;text-wrap: wrap;&quot;&gt;usuario_ainf&lt;/span&gt;" style="shape=table;startSize=30;container=1;collapsible=1;childLayout=tableLayout;fixedRows=1;rowLines=0;fontStyle=1;align=center;resizeLast=1;html=1;" vertex="1" parent="1">
          <mxGeometry x="560" y="400" width="209" height="210" as="geometry" />
        </mxCell>
        <mxCell id="VGP13HnjTHXns2idwetP-2" value="" style="shape=tableRow;horizontal=0;startSize=0;swimlaneHead=0;swimlaneBody=0;fillColor=none;collapsible=0;dropTarget=0;points=[[0,0.5],[1,0.5]];portConstraint=eastwest;top=0;left=0;right=0;bottom=1;" vertex="1" parent="VGP13HnjTHXns2idwetP-1">
          <mxGeometry y="30" width="209" height="30" as="geometry" />
        </mxCell>
        <mxCell id="VGP13HnjTHXns2idwetP-3" value="PK" style="shape=partialRectangle;connectable=0;fillColor=none;top=0;left=0;bottom=0;right=0;fontStyle=1;overflow=hidden;whiteSpace=wrap;html=1;" vertex="1" parent="VGP13HnjTHXns2idwetP-2">
          <mxGeometry width="90" height="30" as="geometry">
            <mxRectangle width="90" height="30" as="alternateBounds" />
          </mxGeometry>
        </mxCell>
        <mxCell id="VGP13HnjTHXns2idwetP-4" value="id_usuario_ainf" style="shape=partialRectangle;connectable=0;fillColor=none;top=0;left=0;bottom=0;right=0;align=left;spacingLeft=6;fontStyle=5;overflow=hidden;whiteSpace=wrap;html=1;" vertex="1" parent="VGP13HnjTHXns2idwetP-2">
          <mxGeometry x="90" width="119" height="30" as="geometry">
            <mxRectangle width="119" height="30" as="alternateBounds" />
          </mxGeometry>
        </mxCell>
        <mxCell id="41uy6vxEdGQvRM3YLatE-1" style="shape=tableRow;horizontal=0;startSize=0;swimlaneHead=0;swimlaneBody=0;fillColor=none;collapsible=0;dropTarget=0;points=[[0,0.5],[1,0.5]];portConstraint=eastwest;top=0;left=0;right=0;bottom=1;" vertex="1" parent="VGP13HnjTHXns2idwetP-1">
          <mxGeometry y="60" width="209" height="30" as="geometry" />
        </mxCell>
        <mxCell id="41uy6vxEdGQvRM3YLatE-2" value="FK" style="shape=partialRectangle;connectable=0;fillColor=none;top=0;left=0;bottom=0;right=0;fontStyle=1;overflow=hidden;whiteSpace=wrap;html=1;" vertex="1" parent="41uy6vxEdGQvRM3YLatE-1">
          <mxGeometry width="90" height="30" as="geometry">
            <mxRectangle width="90" height="30" as="alternateBounds" />
          </mxGeometry>
        </mxCell>
        <mxCell id="41uy6vxEdGQvRM3YLatE-3" value="id_usuario" style="shape=partialRectangle;connectable=0;fillColor=none;top=0;left=0;bottom=0;right=0;align=left;spacingLeft=6;fontStyle=5;overflow=hidden;whiteSpace=wrap;html=1;" vertex="1" parent="41uy6vxEdGQvRM3YLatE-1">
          <mxGeometry x="90" width="119" height="30" as="geometry">
            <mxRectangle width="119" height="30" as="alternateBounds" />
          </mxGeometry>
        </mxCell>
        <mxCell id="VGP13HnjTHXns2idwetP-5" value="" style="shape=tableRow;horizontal=0;startSize=0;swimlaneHead=0;swimlaneBody=0;fillColor=none;collapsible=0;dropTarget=0;points=[[0,0.5],[1,0.5]];portConstraint=eastwest;top=0;left=0;right=0;bottom=0;" vertex="1" parent="VGP13HnjTHXns2idwetP-1">
          <mxGeometry y="90" width="209" height="30" as="geometry" />
        </mxCell>
        <mxCell id="VGP13HnjTHXns2idwetP-6" value="DATE" style="shape=partialRectangle;connectable=0;fillColor=none;top=0;left=0;bottom=0;right=0;editable=1;overflow=hidden;whiteSpace=wrap;html=1;" vertex="1" parent="VGP13HnjTHXns2idwetP-5">
          <mxGeometry width="90" height="30" as="geometry">
            <mxRectangle width="90" height="30" as="alternateBounds" />
          </mxGeometry>
        </mxCell>
        <mxCell id="VGP13HnjTHXns2idwetP-7" value="fecha_nac" style="shape=partialRectangle;connectable=0;fillColor=none;top=0;left=0;bottom=0;right=0;align=left;spacingLeft=6;overflow=hidden;whiteSpace=wrap;html=1;" vertex="1" parent="VGP13HnjTHXns2idwetP-5">
          <mxGeometry x="90" width="119" height="30" as="geometry">
            <mxRectangle width="119" height="30" as="alternateBounds" />
          </mxGeometry>
        </mxCell>
        <mxCell id="VGP13HnjTHXns2idwetP-8" value="" style="shape=tableRow;horizontal=0;startSize=0;swimlaneHead=0;swimlaneBody=0;fillColor=none;collapsible=0;dropTarget=0;points=[[0,0.5],[1,0.5]];portConstraint=eastwest;top=0;left=0;right=0;bottom=0;" vertex="1" parent="VGP13HnjTHXns2idwetP-1">
          <mxGeometry y="120" width="209" height="30" as="geometry" />
        </mxCell>
        <mxCell id="VGP13HnjTHXns2idwetP-9" value="VARCHAR(45)" style="shape=partialRectangle;connectable=0;fillColor=none;top=0;left=0;bottom=0;right=0;editable=1;overflow=hidden;whiteSpace=wrap;html=1;" vertex="1" parent="VGP13HnjTHXns2idwetP-8">
          <mxGeometry width="90" height="30" as="geometry">
            <mxRectangle width="90" height="30" as="alternateBounds" />
          </mxGeometry>
        </mxCell>
        <mxCell id="VGP13HnjTHXns2idwetP-10" value="país" style="shape=partialRectangle;connectable=0;fillColor=none;top=0;left=0;bottom=0;right=0;align=left;spacingLeft=6;overflow=hidden;whiteSpace=wrap;html=1;" vertex="1" parent="VGP13HnjTHXns2idwetP-8">
          <mxGeometry x="90" width="119" height="30" as="geometry">
            <mxRectangle width="119" height="30" as="alternateBounds" />
          </mxGeometry>
        </mxCell>
        <mxCell id="VGP13HnjTHXns2idwetP-11" style="shape=tableRow;horizontal=0;startSize=0;swimlaneHead=0;swimlaneBody=0;fillColor=none;collapsible=0;dropTarget=0;points=[[0,0.5],[1,0.5]];portConstraint=eastwest;top=0;left=0;right=0;bottom=0;" vertex="1" parent="VGP13HnjTHXns2idwetP-1">
          <mxGeometry y="150" width="209" height="30" as="geometry" />
        </mxCell>
        <mxCell id="VGP13HnjTHXns2idwetP-12" value="INT" style="shape=partialRectangle;connectable=0;fillColor=none;top=0;left=0;bottom=0;right=0;editable=1;overflow=hidden;whiteSpace=wrap;html=1;" vertex="1" parent="VGP13HnjTHXns2idwetP-11">
          <mxGeometry width="90" height="30" as="geometry">
            <mxRectangle width="90" height="30" as="alternateBounds" />
          </mxGeometry>
        </mxCell>
        <mxCell id="VGP13HnjTHXns2idwetP-13" value="num_muestras" style="shape=partialRectangle;connectable=0;fillColor=none;top=0;left=0;bottom=0;right=0;align=left;spacingLeft=6;overflow=hidden;whiteSpace=wrap;html=1;" vertex="1" parent="VGP13HnjTHXns2idwetP-11">
          <mxGeometry x="90" width="119" height="30" as="geometry">
            <mxRectangle width="119" height="30" as="alternateBounds" />
          </mxGeometry>
        </mxCell>
        <mxCell id="yqi594We8rbLnXG7-PG4-10" style="shape=tableRow;horizontal=0;startSize=0;swimlaneHead=0;swimlaneBody=0;fillColor=none;collapsible=0;dropTarget=0;points=[[0,0.5],[1,0.5]];portConstraint=eastwest;top=0;left=0;right=0;bottom=0;" vertex="1" parent="VGP13HnjTHXns2idwetP-1">
          <mxGeometry y="180" width="209" height="30" as="geometry" />
        </mxCell>
        <mxCell id="yqi594We8rbLnXG7-PG4-11" value="BOOLEAN" style="shape=partialRectangle;connectable=0;fillColor=none;top=0;left=0;bottom=0;right=0;editable=1;overflow=hidden;whiteSpace=wrap;html=1;" vertex="1" parent="yqi594We8rbLnXG7-PG4-10">
          <mxGeometry width="90" height="30" as="geometry">
            <mxRectangle width="90" height="30" as="alternateBounds" />
          </mxGeometry>
        </mxCell>
        <mxCell id="yqi594We8rbLnXG7-PG4-12" value="usuario_ainf_activa" style="shape=partialRectangle;connectable=0;fillColor=none;top=0;left=0;bottom=0;right=0;align=left;spacingLeft=6;overflow=hidden;whiteSpace=wrap;html=1;" vertex="1" parent="yqi594We8rbLnXG7-PG4-10">
          <mxGeometry x="90" width="119" height="30" as="geometry">
            <mxRectangle width="119" height="30" as="alternateBounds" />
          </mxGeometry>
        </mxCell>
        <mxCell id="Rk6oc_rW-ArN25vA6EaD-1" value="" style="edgeStyle=entityRelationEdgeStyle;fontSize=12;html=1;endArrow=ERoneToMany;rounded=0;entryX=1;entryY=0.5;entryDx=0;entryDy=0;exitX=1;exitY=0.5;exitDx=0;exitDy=0;" edge="1" parent="1" source="mTCIQwDG1VTHyRCCSG2a-36" target="hBYNIxlsABJpONRMY5VQ-1">
          <mxGeometry width="100" height="100" relative="1" as="geometry">
            <mxPoint x="280" y="450" as="sourcePoint" />
            <mxPoint x="310" y="260" as="targetPoint" />
            <Array as="points">
              <mxPoint x="280" y="370" />
              <mxPoint x="230" y="300" />
              <mxPoint x="230" y="300" />
            </Array>
          </mxGeometry>
        </mxCell>
        <mxCell id="Rk6oc_rW-ArN25vA6EaD-2" value="" style="edgeStyle=entityRelationEdgeStyle;fontSize=12;html=1;endArrow=ERmandOne;startArrow=ERmandOne;rounded=0;exitX=1;exitY=0.5;exitDx=0;exitDy=0;" edge="1" parent="1" source="UDE4ZvqMbanx0RUSKuwu-2" target="41uy6vxEdGQvRM3YLatE-1">
          <mxGeometry width="100" height="100" relative="1" as="geometry">
            <mxPoint x="529" y="400" as="sourcePoint" />
            <mxPoint x="629" y="300" as="targetPoint" />
          </mxGeometry>
        </mxCell>
        <mxCell id="ActyLKYOQ7A9aJiMGCed-1" value="muestras_usuarios" style="shape=table;startSize=30;container=1;collapsible=1;childLayout=tableLayout;fixedRows=1;rowLines=0;fontStyle=1;align=center;resizeLast=1;html=1;" vertex="1" parent="1">
          <mxGeometry x="290" y="80" width="230" height="120" as="geometry" />
        </mxCell>
        <mxCell id="ActyLKYOQ7A9aJiMGCed-2" value="" style="shape=tableRow;horizontal=0;startSize=0;swimlaneHead=0;swimlaneBody=0;fillColor=none;collapsible=0;dropTarget=0;points=[[0,0.5],[1,0.5]];portConstraint=eastwest;top=0;left=0;right=0;bottom=1;" vertex="1" parent="ActyLKYOQ7A9aJiMGCed-1">
          <mxGeometry y="30" width="230" height="30" as="geometry" />
        </mxCell>
        <mxCell id="ActyLKYOQ7A9aJiMGCed-3" value="PK" style="shape=partialRectangle;connectable=0;fillColor=none;top=0;left=0;bottom=0;right=0;fontStyle=1;overflow=hidden;whiteSpace=wrap;html=1;" vertex="1" parent="ActyLKYOQ7A9aJiMGCed-2">
          <mxGeometry width="100" height="30" as="geometry">
            <mxRectangle width="100" height="30" as="alternateBounds" />
          </mxGeometry>
        </mxCell>
        <mxCell id="ActyLKYOQ7A9aJiMGCed-4" value="id_muestra_usuario" style="shape=partialRectangle;connectable=0;fillColor=none;top=0;left=0;bottom=0;right=0;align=left;spacingLeft=6;fontStyle=5;overflow=hidden;whiteSpace=wrap;html=1;" vertex="1" parent="ActyLKYOQ7A9aJiMGCed-2">
          <mxGeometry x="100" width="130" height="30" as="geometry">
            <mxRectangle width="130" height="30" as="alternateBounds" />
          </mxGeometry>
        </mxCell>
        <mxCell id="Ea00U7fe3yhxe5grMpmz-4" style="shape=tableRow;horizontal=0;startSize=0;swimlaneHead=0;swimlaneBody=0;fillColor=none;collapsible=0;dropTarget=0;points=[[0,0.5],[1,0.5]];portConstraint=eastwest;top=0;left=0;right=0;bottom=1;" vertex="1" parent="ActyLKYOQ7A9aJiMGCed-1">
          <mxGeometry y="60" width="230" height="30" as="geometry" />
        </mxCell>
        <mxCell id="Ea00U7fe3yhxe5grMpmz-5" value="FK" style="shape=partialRectangle;connectable=0;fillColor=none;top=0;left=0;bottom=0;right=0;fontStyle=1;overflow=hidden;whiteSpace=wrap;html=1;" vertex="1" parent="Ea00U7fe3yhxe5grMpmz-4">
          <mxGeometry width="100" height="30" as="geometry">
            <mxRectangle width="100" height="30" as="alternateBounds" />
          </mxGeometry>
        </mxCell>
        <mxCell id="Ea00U7fe3yhxe5grMpmz-6" value="id_muestra" style="shape=partialRectangle;connectable=0;fillColor=none;top=0;left=0;bottom=0;right=0;align=left;spacingLeft=6;fontStyle=5;overflow=hidden;whiteSpace=wrap;html=1;" vertex="1" parent="Ea00U7fe3yhxe5grMpmz-4">
          <mxGeometry x="100" width="130" height="30" as="geometry">
            <mxRectangle width="130" height="30" as="alternateBounds" />
          </mxGeometry>
        </mxCell>
        <mxCell id="Ea00U7fe3yhxe5grMpmz-1" style="shape=tableRow;horizontal=0;startSize=0;swimlaneHead=0;swimlaneBody=0;fillColor=none;collapsible=0;dropTarget=0;points=[[0,0.5],[1,0.5]];portConstraint=eastwest;top=0;left=0;right=0;bottom=1;" vertex="1" parent="ActyLKYOQ7A9aJiMGCed-1">
          <mxGeometry y="90" width="230" height="30" as="geometry" />
        </mxCell>
        <mxCell id="Ea00U7fe3yhxe5grMpmz-2" value="FK" style="shape=partialRectangle;connectable=0;fillColor=none;top=0;left=0;bottom=0;right=0;fontStyle=1;overflow=hidden;whiteSpace=wrap;html=1;" vertex="1" parent="Ea00U7fe3yhxe5grMpmz-1">
          <mxGeometry width="100" height="30" as="geometry">
            <mxRectangle width="100" height="30" as="alternateBounds" />
          </mxGeometry>
        </mxCell>
        <mxCell id="Ea00U7fe3yhxe5grMpmz-3" value="id_usuario" style="shape=partialRectangle;connectable=0;fillColor=none;top=0;left=0;bottom=0;right=0;align=left;spacingLeft=6;fontStyle=5;overflow=hidden;whiteSpace=wrap;html=1;" vertex="1" parent="Ea00U7fe3yhxe5grMpmz-1">
          <mxGeometry x="100" width="130" height="30" as="geometry">
            <mxRectangle width="130" height="30" as="alternateBounds" />
          </mxGeometry>
        </mxCell>
        <mxCell id="Ea00U7fe3yhxe5grMpmz-7" value="" style="edgeStyle=entityRelationEdgeStyle;fontSize=12;html=1;endArrow=ERoneToMany;rounded=0;exitX=1;exitY=0.5;exitDx=0;exitDy=0;" edge="1" parent="1" source="QI8GyUYM_MH54oQovk_u-2">
          <mxGeometry width="100" height="100" relative="1" as="geometry">
            <mxPoint x="330" y="320" as="sourcePoint" />
            <mxPoint x="290" y="155" as="targetPoint" />
            <Array as="points">
              <mxPoint x="240" y="140" />
              <mxPoint x="249" y="136" />
              <mxPoint x="240" y="136" />
              <mxPoint x="260" y="130" />
            </Array>
          </mxGeometry>
        </mxCell>
        <mxCell id="Ea00U7fe3yhxe5grMpmz-8" value="" style="edgeStyle=entityRelationEdgeStyle;fontSize=12;html=1;endArrow=ERoneToMany;rounded=0;exitX=0;exitY=0.5;exitDx=0;exitDy=0;entryX=1;entryY=0.5;entryDx=0;entryDy=0;" edge="1" parent="1" source="UDE4ZvqMbanx0RUSKuwu-2" target="Ea00U7fe3yhxe5grMpmz-1">
          <mxGeometry width="100" height="100" relative="1" as="geometry">
            <mxPoint x="299" y="480" as="sourcePoint" />
            <mxPoint x="609" y="310" as="targetPoint" />
            <Array as="points">
              <mxPoint x="569" y="140" />
              <mxPoint x="579" y="140" />
              <mxPoint x="569" y="140" />
              <mxPoint x="559" y="170" />
            </Array>
          </mxGeometry>
        </mxCell>
      </root>
    </mxGraphModel>
  </diagram>
</mxfile>
